<svg xmlns="http://www.w3.org/2000/svg" version="1.1" xmlns:xlink="http://www.w3.org/1999/xlink" xmlns:svgjs="http://svgjs.dev/svgjs" width="1500" height="549" viewBox="0 0 1500 549"><g transform="matrix(1,0,0,1,-0.9090909090909918,0.12667001559816526)"><svg viewBox="0 0 396 145" data-background-color="#293040" preserveAspectRatio="xMidYMid meet" height="549" width="1500" xmlns="http://www.w3.org/2000/svg" xmlns:xlink="http://www.w3.org/1999/xlink"><g id="tight-bounds" transform="matrix(1,0,0,1,0.2400000000000091,-0.033455650749971255)"><svg viewBox="0 0 395.52 145.06691130149994" height="145.06691130149994" width="395.52"><g><svg viewBox="0 0 665.1444579021894 243.9584650009637" height="145.06691130149994" width="395.52"><g transform="matrix(1,0,0,1,269.6244579021894,27.744906328598347)"><svg viewBox="0 0 395.52 188.46865234376702" height="188.46865234376702" width="395.52"><g id="textblocktransform"><svg viewBox="0 0 395.52 188.46865234376702" height="188.46865234376702" width="395.52" id="textblock"><g><svg viewBox="0 0 395.52 106.71604865462587" height="106.71604865462587" width="395.52"><g transform="matrix(1,0,0,1,0,0)"><svg width="395.52" viewBox="2.75 -36.05 135.64 36.599999999999994" height="106.71604865462587" data-palette-color="#39cccc"><path d="M2.75-29.25L2.75-33.45 26.2-33.45 25.3-29.25 16.85-29.25 11.2 0 5.4 0 11.1-29.25 2.75-29.25ZM38.65-22.9L35.75-18.25Q35.1-18.95 34.4-19.4 33.7-19.85 32.55-19.85L32.55-19.85Q31.85-19.85 31.17-19.2 30.5-18.55 29.87-17.48 29.25-16.4 28.7-15.03 28.15-13.65 27.75-12.25L27.75-12.25 25.35 0 19.75 0 22.3-12.6Q22.6-14.05 22.72-15.3 22.85-16.55 22.85-17.55L22.85-17.55Q22.85-20.3 22.35-21.55 21.85-22.8 21.6-23.2L21.6-23.2 26.15-25Q26.7-24.3 27.07-23.3 27.45-22.3 27.45-20.75L27.45-20.75Q27.45-19.7 27.27-18.43 27.1-17.15 27-16L27-16Q28.05-20.55 29.75-22.75 31.45-24.95 34.25-24.95L34.25-24.95Q35.95-24.95 37-24.38 38.05-23.8 38.65-22.9L38.65-22.9ZM46.95-36.05Q48.55-36.05 49.3-35.18 50.05-34.3 50.05-32.8L50.05-32.8Q50.05-31.35 49.05-30.23 48.05-29.1 46.35-29.1L46.35-29.1Q44.75-29.1 44-30 43.25-30.9 43.25-32.25L43.25-32.25Q43.25-33.8 44.22-34.93 45.2-36.05 46.95-36.05L46.95-36.05ZM43.3 0.25Q41.05 0.25 39.85-0.9 38.65-2.05 38.65-3.95L38.65-3.95Q38.65-4.65 38.8-5.4L38.8-5.4 42.6-24.5 48.1-24.5 44.5-5.9Q44.45-5.65 44.42-5.48 44.4-5.3 44.4-5.1L44.4-5.1Q44.4-3.85 45.25-3.85L45.25-3.85Q46.1-3.85 46.9-4.03 47.7-4.2 47.8-4.25L47.8-4.25 47.8-0.65Q47.25-0.4 46.55-0.2L46.55-0.2Q45.95 0 45.12 0.13 44.3 0.25 43.3 0.25L43.3 0.25ZM63.39-25.1L63.39-25.1Q64.94-25.1 66.09-24.73 67.24-24.35 68.04-23.7 68.84-23.05 69.32-22.18 69.79-21.3 69.99-20.35L69.99-20.35 65.84-18.7Q65.64-19.15 65.49-19.63 65.34-20.1 65.04-20.48 64.74-20.85 64.27-21.08 63.79-21.3 62.99-21.3L62.99-21.3Q61.29-21.3 60.57-20.35 59.84-19.4 59.84-18.4L59.84-18.4Q59.84-17.7 60.12-17.15 60.39-16.6 60.79-16.15 61.19-15.7 61.67-15.35 62.14-15 62.54-14.8L62.54-14.8 63.99-14Q64.79-13.55 65.57-13.03 66.34-12.5 66.89-11.75 67.44-11 67.79-9.93 68.14-8.85 68.14-7.3L68.14-7.3Q68.14-5.7 67.52-4.28 66.89-2.85 65.69-1.78 64.49-0.7 62.69-0.08 60.89 0.55 58.49 0.55L58.49 0.55Q56.89 0.55 55.42 0.18 53.94-0.2 52.79-0.65L52.79-0.65Q51.49-1.2 50.29-1.85L50.29-1.85 52.49-5.8Q53.54-5.15 54.64-4.65L54.64-4.65Q55.54-4.2 56.62-3.85 57.69-3.5 58.64-3.5L58.64-3.5Q60.54-3.5 61.47-4.35 62.39-5.2 62.39-6.35L62.39-6.35Q62.39-8.05 61.47-8.93 60.54-9.8 59.34-10.45L59.34-10.45 58.09-11.1Q57.49-11.4 56.79-11.85 56.09-12.3 55.47-13.03 54.84-13.75 54.44-14.85 54.04-15.95 54.04-17.55L54.04-17.55Q54.04-19.15 54.64-20.53 55.24-21.9 56.42-22.93 57.59-23.95 59.34-24.53 61.09-25.1 63.39-25.1ZM72.79-20.45L72.79-24.5 77.79-24.5 79.99-30.75 84.74-31.8 83.29-24.5 88.89-24.5 88.19-20.45 82.49-20.45 79.69-5.7Q79.64-5.45 79.62-5.28 79.59-5.1 79.59-4.95L79.59-4.95Q79.59-4.25 79.99-3.98 80.39-3.7 81.49-3.7L81.49-3.7Q82.19-3.7 82.92-3.83 83.64-3.95 84.29-4.1L84.29-4.1Q85.04-4.3 85.74-4.55L85.74-4.55 85.74-0.8Q84.89-0.45 83.89-0.2L83.89-0.2Q83.04 0.05 81.87 0.23 80.69 0.4 79.39 0.4L79.39 0.4Q76.39 0.4 75.12-0.68 73.84-1.75 73.84-3.8L73.84-3.8Q73.84-4.45 73.99-5.2L73.99-5.2 77.04-20.45 72.79-20.45ZM96.94-3.7Q98.19-3.7 99.44-5.1 100.69-6.5 101.74-8.53 102.79-10.55 103.56-12.88 104.34-15.2 104.74-17.1L104.74-17.1 105.44-20.55Q104.84-20.85 104.06-20.95 103.29-21.05 102.59-21.05L102.59-21.05Q100.34-21.05 98.76-19.78 97.19-18.5 96.21-16.53 95.24-14.55 94.81-12.18 94.39-9.8 94.39-7.65L94.39-7.65Q94.39-5.45 95.01-4.58 95.64-3.7 96.94-3.7L96.94-3.7ZM95.09 0.4Q93.29 0.4 92.04-0.3 90.79-1 89.99-2.18 89.19-3.35 88.81-4.83 88.44-6.3 88.44-7.85L88.44-7.85Q88.44-11.4 89.36-14.5 90.29-17.6 92.09-19.93 93.89-22.25 96.49-23.58 99.09-24.9 102.49-24.9L102.49-24.9Q103.34-24.9 104.89-24.73 106.44-24.55 108.44-23.7L108.44-23.7 111.59-23.5 109.34-11.85Q108.84-9.2 108.84-7.2L108.84-7.2Q108.84-4.75 109.46-3.43 110.09-2.1 110.64-1.3L110.64-1.3 106.14 0.5Q105.39-0.35 104.91-1.6 104.44-2.85 104.44-4.45L104.44-4.45Q104.44-5.1 104.54-6.13 104.64-7.15 104.79-8.45L104.79-8.45 103.94-6.45Q103.09-4.5 102.09-3.18 101.09-1.85 99.96-1.05 98.84-0.25 97.61 0.08 96.39 0.4 95.09 0.4L95.09 0.4ZM138.39-18.8Q138.39-16.85 137.89-14.95 137.39-13.05 136.76-11.3 136.14-9.55 135.64-7.93 135.14-6.3 135.14-4.8L135.14-4.8Q135.14-3.8 135.21-2.48 135.29-1.15 135.54 0L135.54 0 129.99 0Q129.84-0.85 129.81-1.58 129.79-2.3 129.79-3L129.79-3Q129.79-4.95 130.24-6.85 130.69-8.75 131.24-10.6 131.79-12.45 132.24-14.18 132.69-15.9 132.69-17.55L132.69-17.55Q132.69-18.75 132.11-19.58 131.54-20.4 129.99-20.4L129.99-20.4Q128.64-20.4 127.34-19.23 126.04-18.05 124.91-16.23 123.79-14.4 122.96-12.2 122.14-10 121.74-7.95L121.74-7.95 120.19 0 114.59 0 117.14-12.6Q117.44-14.05 117.56-15.3 117.69-16.55 117.69-17.55L117.69-17.55Q117.69-20.3 117.19-21.55 116.69-22.8 116.44-23.2L116.44-23.2 120.99-25Q121.54-24.3 121.91-23.3 122.29-22.3 122.29-20.75L122.29-20.75Q122.29-20.2 122.26-19.93 122.24-19.65 122.21-19.25 122.19-18.85 122.09-18.13 121.99-17.4 121.84-16.05L121.84-16.05 122.69-18.05Q124.19-21.5 126.61-23.2 129.04-24.9 132.04-24.9L132.04-24.9Q135.34-24.9 136.86-23.25 138.39-21.6 138.39-18.8L138.39-18.8Z" opacity="1" transform="matrix(1,0,0,1,0,0)" fill="#39cccc" class="wordmark-text-0" data-fill-palette-color="primary" id="text-0"></path></svg></g></svg></g><g transform="matrix(1,0,0,1,0,131.90914655681533)"><svg viewBox="0 0 188.2717801328117 56.55950578695171" height="56.55950578695171" width="188.2717801328117"><g transform="matrix(1,0,0,1,0,0)"><svg width="188.2717801328117" viewBox="1.8 -36.05 156.94 47.15" height="56.55950578695171" data-palette-color="#39cccc"><path d="M18.85 2.25L20.2-4.15Q18.75-1.9 16.32-0.63 13.9 0.65 11.05 0.65L11.05 0.65Q6.65 0.65 4.33-2.23 2-5.1 2-10.4L2-10.4Q2-14.9 3.13-19.18 4.25-23.45 6.58-26.78 8.9-30.1 12.45-32.1 16-34.1 20.9-34.1L20.9-34.1Q22.6-34.1 23.78-33.7 24.95-33.3 25.75-32.63 26.55-31.95 27-31.08 27.45-30.2 27.7-29.2L27.7-29.2 23.3-27.2Q23.1-27.65 22.85-28.13 22.6-28.6 22.15-28.95 21.7-29.3 21-29.53 20.3-29.75 19.25-29.75L19.25-29.75Q17.35-29.75 15.78-28.9 14.2-28.05 13-26.63 11.8-25.2 10.93-23.33 10.05-21.45 9.5-19.4 8.95-17.35 8.68-15.25 8.4-13.15 8.4-11.3L8.4-11.3Q8.4-9.65 8.7-8.28 9-6.9 9.6-5.88 10.2-4.85 11.18-4.28 12.15-3.7 13.5-3.7L13.5-3.7Q14.55-3.7 15.73-4.23 16.9-4.75 17.9-5.73 18.9-6.7 19.7-8.05 20.5-9.4 20.8-11.05L20.8-11.05 21.85-16.4 27.5-16.4 24 1.85Q23.6 3.8 22.63 5.48 21.65 7.15 20.1 8.4 18.55 9.65 16.53 10.38 14.5 11.1 12.1 11.1L12.1 11.1Q10.65 11.1 9.18 10.8 7.7 10.5 6.35 10.05 5 9.6 3.83 9.08 2.65 8.55 1.8 8.1L1.8 8.1 3.85 3.65Q4.8 4.05 5.88 4.53 6.95 5 8.08 5.43 9.2 5.85 10.4 6.13 11.6 6.4 12.75 6.4L12.75 6.4Q15.1 6.4 16.78 5.18 18.45 3.95 18.85 2.25L18.85 2.25ZM39.7-3.7Q40.95-3.7 42.2-5.1 43.45-6.5 44.5-8.53 45.55-10.55 46.32-12.88 47.1-15.2 47.5-17.1L47.5-17.1 48.2-20.55Q47.6-20.85 46.82-20.95 46.05-21.05 45.35-21.05L45.35-21.05Q43.1-21.05 41.52-19.78 39.95-18.5 38.97-16.53 38-14.55 37.57-12.18 37.15-9.8 37.15-7.65L37.15-7.65Q37.15-5.45 37.77-4.58 38.4-3.7 39.7-3.7L39.7-3.7ZM37.85 0.4Q36.05 0.4 34.8-0.3 33.55-1 32.75-2.18 31.95-3.35 31.57-4.83 31.2-6.3 31.2-7.85L31.2-7.85Q31.2-11.4 32.12-14.5 33.05-17.6 34.85-19.93 36.65-22.25 39.25-23.58 41.85-24.9 45.25-24.9L45.25-24.9Q46.1-24.9 47.65-24.73 49.2-24.55 51.2-23.7L51.2-23.7 54.35-23.5 52.1-11.85Q51.6-9.2 51.6-7.2L51.6-7.2Q51.6-4.75 52.22-3.43 52.85-2.1 53.4-1.3L53.4-1.3 48.9 0.5Q48.15-0.35 47.67-1.6 47.2-2.85 47.2-4.45L47.2-4.45Q47.2-5.1 47.3-6.13 47.4-7.15 47.55-8.45L47.55-8.45 46.7-6.45Q45.85-4.5 44.85-3.18 43.85-1.85 42.72-1.05 41.6-0.25 40.37 0.08 39.15 0.4 37.85 0.4L37.85 0.4ZM61.15-20.15Q61.15-21.15 61.07-22.13 61-23.1 60.85-23.65L60.85-23.65 65.59-24.85Q66.15-23.75 66.34-22.38 66.55-21 66.55-19.8L66.55-19.8Q66.55-18.05 66.07-16.45 65.59-14.85 65.05-13.28 64.5-11.7 64.02-10.15 63.55-8.6 63.55-6.95L63.55-6.95Q63.55-5.75 64.12-4.93 64.7-4.1 66.25-4.1L66.25-4.1Q67.59-4.1 68.9-5.28 70.2-6.45 71.32-8.28 72.45-10.1 73.27-12.3 74.09-14.5 74.5-16.55L74.5-16.55 76.05-24.5 81.65-24.5 79-11.9Q78.7-10.45 78.57-9.35 78.45-8.25 78.45-7.25L78.45-7.25Q78.45-4.8 79.09-3.45 79.75-2.1 80.3-1.3L80.3-1.3 75.75 0.5Q75-0.35 74.52-1.6 74.05-2.85 74.05-4.45L74.05-4.45Q74.05-5.15 74.15-6.15 74.25-7.15 74.4-8.45L74.4-8.45 73.55-6.45Q72.05-3 69.62-1.3 67.2 0.4 64.2 0.4L64.2 0.4Q60.9 0.4 59.37-1.25 57.85-2.9 57.85-5.7L57.85-5.7Q57.85-7.65 58.37-9.5 58.9-11.35 59.5-13.13 60.1-14.9 60.62-16.65 61.15-18.4 61.15-20.15L61.15-20.15ZM85.89-20.45L85.89-24.5 90.89-24.5 93.09-30.75 97.84-31.8 96.39-24.5 101.99-24.5 101.29-20.45 95.59-20.45 92.79-5.7Q92.74-5.45 92.72-5.28 92.69-5.1 92.69-4.95L92.69-4.95Q92.69-4.25 93.09-3.98 93.49-3.7 94.59-3.7L94.59-3.7Q95.29-3.7 96.02-3.83 96.74-3.95 97.39-4.1L97.39-4.1Q98.14-4.3 98.84-4.55L98.84-4.55 98.84-0.8Q97.99-0.45 96.99-0.2L96.99-0.2Q96.14 0.05 94.97 0.23 93.79 0.4 92.49 0.4L92.49 0.4Q89.49 0.4 88.22-0.68 86.94-1.75 86.94-3.8L86.94-3.8Q86.94-4.45 87.09-5.2L87.09-5.2 90.14-20.45 85.89-20.45ZM111.59-36.05Q113.19-36.05 113.94-35.18 114.69-34.3 114.69-32.8L114.69-32.8Q114.69-31.35 113.69-30.23 112.69-29.1 110.99-29.1L110.99-29.1Q109.39-29.1 108.64-30 107.89-30.9 107.89-32.25L107.89-32.25Q107.89-33.8 108.87-34.93 109.84-36.05 111.59-36.05L111.59-36.05ZM107.94 0.25Q105.69 0.25 104.49-0.9 103.29-2.05 103.29-3.95L103.29-3.95Q103.29-4.65 103.44-5.4L103.44-5.4 107.24-24.5 112.74-24.5 109.14-5.9Q109.09-5.65 109.07-5.48 109.04-5.3 109.04-5.1L109.04-5.1Q109.04-3.85 109.89-3.85L109.89-3.85Q110.74-3.85 111.54-4.03 112.34-4.2 112.44-4.25L112.44-4.25 112.44-0.65Q111.89-0.4 111.19-0.2L111.19-0.2Q110.59 0 109.77 0.13 108.94 0.25 107.94 0.25L107.94 0.25ZM116.69-7.8Q116.69-11.35 117.61-14.5 118.54-17.65 120.31-20 122.09-22.35 124.69-23.73 127.29-25.1 130.64-25.1L130.64-25.1Q134.54-25.1 136.19-23.65 137.84-22.2 137.84-19.7L137.84-19.7Q137.84-17.5 136.71-15.7 135.59-13.9 133.56-12.55 131.54-11.2 128.74-10.38 125.94-9.55 122.59-9.4L122.59-9.4Q122.54-8.95 122.54-8.5 122.54-8.05 122.54-7.65L122.54-7.65Q122.54-5.3 123.54-4.4 124.54-3.5 126.19-3.5L126.19-3.5Q127.19-3.5 128.46-3.8 129.74-4.1 130.94-4.5L130.94-4.5Q132.29-4.95 133.79-5.55L133.79-5.55 134.94-1.95Q133.44-1.25 131.79-0.7L131.79-0.7Q130.39-0.2 128.61 0.18 126.84 0.55 125.04 0.55L125.04 0.55Q122.69 0.55 121.09-0.15 119.49-0.85 118.51-2.02 117.54-3.2 117.11-4.7 116.69-6.2 116.69-7.8L116.69-7.8ZM129.49-21.25Q128.34-21.25 127.34-20.58 126.34-19.9 125.56-18.75 124.79-17.6 124.19-16.1 123.59-14.6 123.19-13L123.19-13Q125.44-13.15 127.11-13.73 128.79-14.3 129.91-15.15 131.04-16 131.61-16.95 132.19-17.9 132.19-18.8L132.19-18.8Q132.19-19.95 131.56-20.6 130.94-21.25 129.49-21.25L129.49-21.25ZM158.74-22.9L155.84-18.25Q155.19-18.95 154.49-19.4 153.79-19.85 152.64-19.85L152.64-19.85Q151.94-19.85 151.26-19.2 150.59-18.55 149.96-17.48 149.34-16.4 148.79-15.03 148.24-13.65 147.84-12.25L147.84-12.25 145.44 0 139.84 0 142.39-12.6Q142.69-14.05 142.81-15.3 142.94-16.55 142.94-17.55L142.94-17.55Q142.94-20.3 142.44-21.55 141.94-22.8 141.69-23.2L141.69-23.2 146.24-25Q146.79-24.3 147.16-23.3 147.54-22.3 147.54-20.75L147.54-20.75Q147.54-19.7 147.36-18.43 147.19-17.15 147.09-16L147.09-16Q148.14-20.55 149.84-22.75 151.54-24.95 154.34-24.95L154.34-24.95Q156.04-24.95 157.09-24.38 158.14-23.8 158.74-22.9L158.74-22.9Z" opacity="1" transform="matrix(1,0,0,1,0,0)" fill="#39cccc" class="slogan-text-1" data-fill-palette-color="secondary" id="text-1"></path></svg></g></svg></g></svg></g></svg></g><g><svg viewBox="0 0 244.43135999999996 243.9584650009637" height="243.9584650009637" width="244.43135999999996"><g><svg xmlns="http://www.w3.org/2000/svg" xmlns:xlink="http://www.w3.org/1999/xlink" version="1.1" x="0" y="0" viewBox="0.475 0.46716149588692424 99.32499999999999 99.13283850411307" style="enable-background:new 0 0 100 100;" xml:space="preserve" height="243.9584650009637" width="244.43135999999996" class="icon-icon-0" data-fill-palette-color="accent" id="icon-0"><g class="" display="none" fill="#0074d9" data-fill-palette-color="accent"><g class="" display="inline" fill="#0074d9" data-fill-palette-color="accent"><path d="M50 0.5C22.7 0.5 0.5 22.7 0.5 50c0 27.3 22.2 49.5 49.5 49.5 27.3 0 49.5-22.2 49.5-49.5C99.5 22.7 77.3 0.5 50 0.5zM50 78.1c-15.5 0-28.1-12.6-28.1-28.1S34.5 21.9 50 21.9 78.1 34.5 78.1 50 65.5 78.1 50 78.1z" fill="#0074d9" data-fill-palette-color="accent"></path></g><g class="" display="inline" fill="#0074d9" data-fill-palette-color="accent"><path d="M99.5 43.2C99.5 20.7 77.3 2.4 50 2.4 22.7 2.4 0.5 20.7 0.5 43.2c0 12.4 6.8 23.5 17.4 31v15c0 4.6 3.8 8.4 8.4 8.4s8.4-3.8 8.4-8.4c0-1.9 1.6-3.5 3.5-3.5 1.9 0 3.5 1.6 3.5 3.5 0 4.6 3.8 8.4 8.4 8.4s8.4-3.8 8.4-8.4c0-1.9 1.6-3.5 3.5-3.5 1.9 0 3.5 1.6 3.5 3.5 0 4.6 3.8 8.4 8.4 8.4 4.6 0 8.4-3.8 8.4-8.4V74.1C92.8 66.6 99.5 55.5 99.5 43.2zM50 18.9c16.3 0 29.5 10.9 29.5 24.3S66.3 67.5 50 67.5 20.5 56.6 20.5 43.2 33.7 18.9 50 18.9z" fill="#0074d9" data-fill-palette-color="accent"></path></g><g class="" display="inline" fill="#0074d9" data-fill-palette-color="accent"><path d="M44.3 43.4C44.3 43.4 44.3 43.4 44.3 43.4 44.3 43.4 44.4 43.4 44.3 43.4L44.3 43.4z" fill="#0074d9" data-fill-palette-color="accent"></path><path d="M44.3 43.4c-10-2.7-19-8-26.2-15.1L17.8 28c-7.6 8-12.2 18.8-12.2 30.6 0 18.4 11.2 34.2 27.1 40.9l-0.1 0c9-10.3 14.4-23.7 14.4-38.4C47.1 54.9 46.1 49 44.3 43.4z" fill="#0074d9" data-fill-palette-color="accent"></path><path d="M55.6 43.4C55.6 43.4 55.7 43.4 55.6 43.4 55.7 43.4 55.7 43.4 55.6 43.4L55.6 43.4z" fill="#0074d9" data-fill-palette-color="accent"></path><path d="M82.2 28l-0.3 0.4c-7.1 7.1-16.1 12.4-26.2 15.1-1.8 5.6-2.7 11.5-2.7 17.7 0 14.7 5.4 28.1 14.4 38.4l-0.1 0C83.2 92.8 94.4 77 94.4 58.6 94.4 46.7 89.7 35.9 82.2 28z" fill="#0074d9" data-fill-palette-color="accent"></path><path d="M73.5 20.9c-3.3-2.1-6.9-3.7-10.8-4.9l8.7-10.9c1-1.2 0.8-3-0.5-4-1.2-1-3-0.8-4 0.5L56.6 14.7c-2.1-0.3-4.3-0.5-6.6-0.5-2.2 0-4.4 0.2-6.6 0.5v0L33.1 1.6c-1-1.2-2.7-1.4-4-0.5-1.2 1-1.4 2.7-0.5 4L37.3 16c-3.8 1.1-7.5 2.8-10.8 4.9l0 0c5.2 7.4 13.8 12.2 23.5 12.2C59.7 33.1 68.3 28.3 73.5 20.9z" fill="#0074d9" data-fill-palette-color="accent"></path><polygon points="73.5,20.9 73.5,20.9 73.5,20.9   " fill="#0074d9" data-fill-palette-color="accent"></polygon></g><g class="" display="inline" fill="#0074d9" data-fill-palette-color="accent"><path d="M93.1 3.2c0 0-33.4-4.8-63 11.1l0 0c-14.6 7.1-24.7 22-24.7 39.4 0 11.4 4.4 21.7 11.5 29.5l16.7-17.7 1.1-28.1 4.9 21.7 8.5-9 0.9-21.7 3.8 16.8 23.8-25.1L56.9 47.3 74.1 48l-21.3 4.8-7.1 9.8 22.7 0.9-28 6.3L25.4 90.4c6.9 4.5 15.1 7.1 23.9 7.1 20 0 36.9-13.5 42.1-31.8l0 0c0-0.2 0.1-0.3 0.1-0.5 0.6-2.3 1.1-4.7 1.4-7.1C96.6 34.1 93.1 3.2 93.1 3.2z" fill="#0074d9" data-fill-palette-color="accent"></path></g><g class="" display="inline" fill="#0074d9" data-fill-palette-color="accent"><path d="M85.2 81.9c0-0.1 0-0.1 0.1-0.1 8.1-8.6 13-20.2 13-32.9C98.3 22.1 76.7 0.5 50 0.5S1.7 22.1 1.7 48.8c0 20.5 12.8 38 30.8 45 0 0-0.1 0-0.1 0s27.8 13.9 64.3-1.9C96.8 92 79.4 91.2 85.2 81.9zM33.6 53.6c-6.2 0-11.3-5-11.3-11.3 0-4.6 2.7-8.4 6.6-10.2 2 6.6 8.1 11.4 15.3 11.4 0.2 0 0.3 0 0.5 0C44.2 49.1 39.4 53.6 33.6 53.6zM62.7 53.6c-5.8 0-10.6-4.5-11.2-10.2 0.2 0 0.3 0 0.5 0 7.2 0 13.3-4.8 15.3-11.4 3.9 1.8 6.6 5.7 6.6 10.2C73.9 48.5 68.9 53.6 62.7 53.6z" fill="#0074d9" data-fill-palette-color="accent"></path></g><g class="" display="inline" fill="#0074d9" data-fill-palette-color="accent"><polygon points="75.2,13.5 48,13.5 23.7,86.5 99.5,86.5   " fill="#0074d9" data-fill-palette-color="accent"></polygon><polygon points="17.2,36.3 0.5,86.5 14,86.5 30.7,36.3   " fill="#0074d9" data-fill-palette-color="accent"></polygon></g><g class="" display="inline" fill="#0074d9" data-fill-palette-color="accent"><polygon points="77,11.7 31.6,11.7 0.5,50.4 0.5,74.9 23,80.2 70.2,47.5   " fill="#0074d9" data-fill-palette-color="accent"></polygon><polygon points="34.5,82.8 55.6,88.3 84.3,69.5 73.9,55.9   " fill="#0074d9" data-fill-palette-color="accent"></polygon><polygon points="87.2,11.7 79.4,50.1 89.6,65 99.5,58.5   " fill="#0074d9" data-fill-palette-color="accent"></polygon></g><g class="" display="inline" fill="#0074d9" data-fill-palette-color="accent"><path d="M83 56.3L83 56.3c0-0.1-0.1-0.3-0.1-0.4-0.2-0.8-0.5-1.6-0.8-2.4C75.3 33.8 50 0.5 50 0.5s-25.3 33.3-32.1 53c-0.3 0.8-0.5 1.6-0.8 2.4 0 0.1-0.1 0.3-0.1 0.4h0c-0.8 2.9-1.2 5.9-1.2 9 0 18.9 15.3 34.2 34.2 34.2s34.2-15.3 34.2-34.2C84.2 62.2 83.8 59.2 83 56.3zM67.4 79.5L67.4 79.5c-3.9 5.4-10.2 9-17.4 9-10.8 0-19.7-8-21.1-18.4 0 0 0 0 0 0l0-0.1c0 0 0 0 0 0.1 0-2.9 2.3-5.2 5.2-5.2 2.5 0 4.7 1.8 5.1 4.3l0 0c1.1 5.1 5.2 9.4 10.7 10.4 4.8 0.9 9.5-0.8 12.6-4.2 0 0 0 0 0 0l0 0c0 0 0 0 0 0 0.6-0.5 1.5-0.8 2.4-0.7 1.8 0.2 3.1 1.7 3 3.5C67.8 78.6 67.6 79.1 67.4 79.5z" fill="#0074d9" data-fill-palette-color="accent"></path></g><g class="" display="inline" fill="#0074d9" data-fill-palette-color="accent"><path d="M35 24.8C16 26.2 0.5 40.2 0.5 59.2S15.9 93.7 35 93.7c12.5 0 23.4-6.6 29.4-16.5 0 0-7.4 2.2-14.8 3-2 0.2-3.9-0.9-4.2-2.9-0.4-2 0.9-3.9 2.9-4.2 0 0 20.4-4.2 29.7-15 0 0-12.3 5.9-27.2 7.1-2 0.2-3.9-0.9-4.2-2.9-0.4-2 0.9-3.9 2.9-4.2 0 0 26.8-4.1 41.6-23.4 0 0-14.7 10.8-39 12.3-2 0.1-3.9-0.9-4.2-2.9s0.9-3.9 2.9-4.2c0 0 29.5-3.2 49-33.7C99.5 6.3 78.9 21.5 35 24.8z" fill="#0074d9" data-fill-palette-color="accent"></path></g><g class="" display="inline" fill="#0074d9" data-fill-palette-color="accent"><path d="M99.5 50L73.8 35.9l4-13.7-13.7 4L50 0.5 35.9 26.2l-13.7-4 4 13.7L0.5 50l25.7 14.1-4 13.7 13.7-4L50 99.5l14.1-25.7 13.7 4-4-13.7L99.5 50zM54.8 54.8L50 63.6l-4.8-8.8L36.4 50l8.8-4.8 4.8-8.8 4.8 8.8 8.8 4.8L54.8 54.8z" fill="#0074d9" data-fill-palette-color="accent"></path></g><g class="" display="inline" fill="#0074d9" data-fill-palette-color="accent"><path d="M72 94.8c-5.6 3-12.1 4.7-18.9 4.7-22.2 0-40.2-18-40.2-40.2 0-6.2 1.4-12 3.9-17.2 0 0 0 10.7 4.8 15.5 0 0-1.4-5.2 3.8-13.9 5.2-8.7 23.9-17 26-24.3 2.1-7.3 1-15.2-2.3-18.8 0 0 9.8 4.9 10.2 15.9 0.5 11-3.5 22.1 3 25.7 5 2.7 10.5 0 11-5 0.4-3.6-1.2-9.1-5.3-13.4 0 0 19.1 11.6 19.1 32.1C87.1 82.6 66 89 66 89 76 75.1 68.1 62 68.1 62c0.2 13.9-11.7 16.8-11.7 16.8 4-2 6.8-6.2 6.8-11 0-6.8-5.5-12.3-12.3-12.3S38.7 61 38.7 67.7c0 2 1.3 5.5 1.3 5.5-5.2-2.9-4.2-10.4-4.2-10.4-0.6 2.2-0.9 4.5-0.9 6.9 0 15.1 12.3 27.4 27.4 27.4 3.4 0 6.6-0.6 9.6-1.7" fill="#0074d9" data-fill-palette-color="accent"></path></g><g class="" display="inline" fill="#0074d9" data-fill-palette-color="accent"><path d="M22.1 54.9l0-44.1c0-5.2 3.8-9.9 8.9-10.3 4.9-0.4 9.1 2.9 10.2 7.4 1.4-3.5 4.9-6 9-6 5.3 0 9.7 4.3 9.7 9.7 0 0.4-0.1 0.7-0.1 1.1 1.8-2.6 4.8-4.2 8.2-4.2 5.5 0 10 4.5 10 10 0 0.1 0 0.3 0 0.4 2-2.4 5.1-3.8 8.6-3.2 4.3 0.8 7.3 4.9 7.3 9.3l0 29.2c0 24.1-18.8 44.7-42.9 45.2C26.3 99.9 6.3 80.2 6.3 55.8H6.2c0-8 3.2-15.3 8.5-20.6 1.2-1.3 3.4-0.3 3.4 1.4C18.1 41.4 18.7 54.9 22.1 54.9z" fill="#0074d9" data-fill-palette-color="accent"></path></g><g class="" display="inline" fill="#0074d9" data-fill-palette-color="accent"><path d="M70.6 6H29.4c-3 0-5.7 1.6-7.2 4.1L1.6 45.9c-1.5 2.6-1.5 5.7 0 8.3l20.6 35.7c1.5 2.6 4.2 4.1 7.2 4.1h41.2c3 0 5.7-1.6 7.2-4.1l20.6-35.7c1.5-2.6 1.5-5.7 0-8.3L77.8 10.2C76.3 7.6 73.6 6 70.6 6zM55 71.1C39.2 74.6 25.4 60.8 28.9 45c1.8-8 8.2-14.4 16.2-16.2C60.8 25.4 74.6 39.2 71.1 55 69.3 62.9 62.9 69.3 55 71.1z" fill="#0074d9" data-fill-palette-color="accent"></path></g><g class="" display="inline" fill="#0074d9" data-fill-palette-color="accent"><path d="M1.3 48.6l18.9-11.3c0.5-0.3 1.2-0.3 1.7 0l19.4 11.3c1.1 0.6 1.1 2.2 0 2.9L21.9 62.8c-0.5 0.3-1.2 0.3-1.7 0L1.3 51.5C0.2 50.8 0.2 49.3 1.3 48.6z" fill="#0074d9" data-fill-palette-color="accent"></path><path d="M58.7 48.6l18.9-11.3c0.5-0.3 1.2-0.3 1.7 0l19.4 11.3c1.1 0.6 1.1 2.2 0 2.9L79.3 62.8c-0.5 0.3-1.2 0.3-1.7 0L58.7 51.5C57.6 50.8 57.6 49.3 58.7 48.6z" fill="#0074d9" data-fill-palette-color="accent"></path><path d="M24.4 91.5l-0.4-22c0-0.6 0.3-1.2 0.8-1.5l19.5-11.1c1.1-0.6 2.5 0.2 2.5 1.4L47 80.8c0 0.6-0.3 1.2-0.9 1.5L26.9 92.9C25.8 93.6 24.5 92.8 24.4 91.5z" fill="#0074d9" data-fill-palette-color="accent"></path><path d="M53.1 41.8l-0.4-22c0-0.6 0.3-1.2 0.8-1.5L73.1 7.2c1.1-0.6 2.5 0.2 2.5 1.4l0.1 22.4c0 0.6-0.3 1.2-0.9 1.5L55.6 43.2C54.5 43.8 53.2 43.1 53.1 41.8z" fill="#0074d9" data-fill-palette-color="accent"></path><path d="M73.1 92.8L53.8 82.1c-0.5-0.3-0.9-0.9-0.9-1.5l0.1-22.4c0-1.3 1.4-2.1 2.5-1.4l19.5 11.1c0.5 0.3 0.9 0.9 0.8 1.5l-0.4 22C75.5 92.6 74.2 93.4 73.1 92.8z" fill="#0074d9" data-fill-palette-color="accent"></path><path d="M44.4 43.1L25.1 32.4c-0.5-0.3-0.9-0.9-0.9-1.5l0.1-22.4c0-1.3 1.4-2.1 2.5-1.4l19.5 11.1c0.5 0.3 0.9 0.9 0.8 1.5l-0.4 22C46.8 42.9 45.5 43.7 44.4 43.1z" fill="#0074d9" data-fill-palette-color="accent"></path></g><g class="" display="inline" fill="#0074d9" data-fill-palette-color="accent"><path d="M18.6 36.7H35c1.6 0 2.7-1.5 2.2-3L27.1 3.5c-0.5-1.5 0.6-3 2.2-3h32.9c1 0 1.8 0.6 2.1 1.5l19.3 54.8c0.5 1.5-0.6 3-2.1 3H58.6c-1.5 0-2.6 1.4-2.2 2.8l8.4 34c0.6 2.4-2.5 3.9-4 1.9l-44-58.2C15.6 38.9 16.7 36.7 18.6 36.7z" fill="#0074d9" data-fill-palette-color="accent"></path></g></g><g fill="#0074d9" data-fill-palette-color="accent"><g fill="#0074d9" data-fill-palette-color="accent"><path d="M51.1 18.9L61.3 0.5 9.4 52.4c-2 2-0.2 5.4 2.6 4.8l39.6-8.5c9.4 0 16.9 7.6 16.9 16.9 0 9.4-7.6 16.9-16.9 16.9-4.3 0-19.5 0.8-34.4-14.2-1.1-1.2-3.1-0.2-2.8 1.4 1.7 8.5 7.5 24.6 26.7 28.7 24.1 5.2 48.2-11.7 50.1-36.2C93.1 38.6 74.4 18.9 51.1 18.9zM29.9 47.1c-1.9 0-3.7-0.7-5-1.8l0 0 11.2-11.2c0 0 0 0 0 0l0 0 0 0c1.1 1.4 1.8 3.1 1.8 5C37.9 43.6 34.3 47.1 29.9 47.1z" fill="#0074d9" data-fill-palette-color="accent"></path></g></g></svg></g></svg></g></svg></g><defs></defs></svg><rect width="395.52" height="145.06691130149994" fill="none" stroke="none" visibility="hidden"></rect></g></svg></g></svg>