<?xml version="1.0" encoding="utf-8"?>
<svg viewBox="0 0 538.554 554.907" xmlns="http://www.w3.org/2000/svg">
  <svg viewBox="0 0 396 145" data-background-color="#293040" preserveAspectRatio="xMidYMid meet" height="549" width="1500" xmlns="http://www.w3.org/2000/svg" transform="matrix(3.786206896551724, 0, 0, 3.786206896551724, 0.33103448275858227, 0)">
    <svg viewBox="0 0 395.52 145.06691130149994" height="145.06691130149994" width="395.52" transform="matrix(1, 0, 0, 1, 0.240000024438, -0.033455647528)">
      <g>
        <svg viewBox="0 0 665.1444579021894 243.9584650009637" height="145.06691130149994" width="395.52">
          <g transform="matrix(1,0,0,1,269.6244579021894,27.744906328598347)">
            <svg viewBox="0 0 395.52 188.46865234376702" height="188.46865234376702" width="395.52">
              <g id="textblocktransform">
                <svg viewBox="0 0 395.52 188.46865234376702" height="188.46865234376702" width="395.52" id="textblock">
                  <g>
                    <svg viewBox="0 0 395.52 106.71604865462587" height="106.71604865462587" width="395.52">
                      <g transform="matrix(1,0,0,1,0,0)">
                        <svg width="395.52" viewBox="2.75 -36.05 135.64 36.599999999999994" height="106.71604865462587" data-palette-color="#39cccc"/>
                      </g>
                    </svg>
                  </g>
                  <g transform="matrix(1,0,0,1,0,131.90914655681533)">
                    <svg viewBox="0 0 188.2717801328117 56.55950578695171" height="56.55950578695171" width="188.2717801328117">
                      <g transform="matrix(1,0,0,1,0,0)">
                        <svg width="188.2717801328117" viewBox="1.8 -36.05 156.94 47.15" height="56.55950578695171" data-palette-color="#39cccc"/>
                      </g>
                    </svg>
                  </g>
                </svg>
              </g>
            </svg>
          </g>
          <g>
            <svg viewBox="0 0 244.43135999999996 243.9584650009637" height="243.9584650009637" width="244.43135999999996">
              <g>
                <svg xmlns="http://www.w3.org/2000/svg" version="1.1" x="0" y="0" viewBox="0.475 0.46716149588692424 99.32499999999999 99.13283850411307" style="enable-background:new 0 0 100 100;" height="243.9584650009637" width="244.43135999999996" class="icon-icon-0" data-fill-palette-color="accent" id="icon-0">
                  <g class="" display="none" fill="#0074d9" data-fill-palette-color="accent">
                    <g class="" display="inline" fill="#0074d9" data-fill-palette-color="accent">
                      <path d="M50 0.5C22.7 0.5 0.5 22.7 0.5 50c0 27.3 22.2 49.5 49.5 49.5 27.3 0 49.5-22.2 49.5-49.5C99.5 22.7 77.3 0.5 50 0.5zM50 78.1c-15.5 0-28.1-12.6-28.1-28.1S34.5 21.9 50 21.9 78.1 34.5 78.1 50 65.5 78.1 50 78.1z" fill="#0074d9" data-fill-palette-color="accent"/>
                    </g>
                    <g class="" display="inline" fill="#0074d9" data-fill-palette-color="accent">
                      <path d="M99.5 43.2C99.5 20.7 77.3 2.4 50 2.4 22.7 2.4 0.5 20.7 0.5 43.2c0 12.4 6.8 23.5 17.4 31v15c0 4.6 3.8 8.4 8.4 8.4s8.4-3.8 8.4-8.4c0-1.9 1.6-3.5 3.5-3.5 1.9 0 3.5 1.6 3.5 3.5 0 4.6 3.8 8.4 8.4 8.4s8.4-3.8 8.4-8.4c0-1.9 1.6-3.5 3.5-3.5 1.9 0 3.5 1.6 3.5 3.5 0 4.6 3.8 8.4 8.4 8.4 4.6 0 8.4-3.8 8.4-8.4V74.1C92.8 66.6 99.5 55.5 99.5 43.2zM50 18.9c16.3 0 29.5 10.9 29.5 24.3S66.3 67.5 50 67.5 20.5 56.6 20.5 43.2 33.7 18.9 50 18.9z" fill="#0074d9" data-fill-palette-color="accent"/>
                    </g>
                    <g class="" display="inline" fill="#0074d9" data-fill-palette-color="accent">
                      <path d="M44.3 43.4C44.3 43.4 44.3 43.4 44.3 43.4 44.3 43.4 44.4 43.4 44.3 43.4L44.3 43.4z" fill="#0074d9" data-fill-palette-color="accent"/>
                      <path d="M44.3 43.4c-10-2.7-19-8-26.2-15.1L17.8 28c-7.6 8-12.2 18.8-12.2 30.6 0 18.4 11.2 34.2 27.1 40.9l-0.1 0c9-10.3 14.4-23.7 14.4-38.4C47.1 54.9 46.1 49 44.3 43.4z" fill="#0074d9" data-fill-palette-color="accent"/>
                      <path d="M55.6 43.4C55.6 43.4 55.7 43.4 55.6 43.4 55.7 43.4 55.7 43.4 55.6 43.4L55.6 43.4z" fill="#0074d9" data-fill-palette-color="accent"/>
                      <path d="M82.2 28l-0.3 0.4c-7.1 7.1-16.1 12.4-26.2 15.1-1.8 5.6-2.7 11.5-2.7 17.7 0 14.7 5.4 28.1 14.4 38.4l-0.1 0C83.2 92.8 94.4 77 94.4 58.6 94.4 46.7 89.7 35.9 82.2 28z" fill="#0074d9" data-fill-palette-color="accent"/>
                      <path d="M73.5 20.9c-3.3-2.1-6.9-3.7-10.8-4.9l8.7-10.9c1-1.2 0.8-3-0.5-4-1.2-1-3-0.8-4 0.5L56.6 14.7c-2.1-0.3-4.3-0.5-6.6-0.5-2.2 0-4.4 0.2-6.6 0.5v0L33.1 1.6c-1-1.2-2.7-1.4-4-0.5-1.2 1-1.4 2.7-0.5 4L37.3 16c-3.8 1.1-7.5 2.8-10.8 4.9l0 0c5.2 7.4 13.8 12.2 23.5 12.2C59.7 33.1 68.3 28.3 73.5 20.9z" fill="#0074d9" data-fill-palette-color="accent"/>
                      <polygon points="73.5,20.9 73.5,20.9 73.5,20.9   " fill="#0074d9" data-fill-palette-color="accent"/>
                    </g>
                    <g class="" display="inline" fill="#0074d9" data-fill-palette-color="accent">
                      <path d="M93.1 3.2c0 0-33.4-4.8-63 11.1l0 0c-14.6 7.1-24.7 22-24.7 39.4 0 11.4 4.4 21.7 11.5 29.5l16.7-17.7 1.1-28.1 4.9 21.7 8.5-9 0.9-21.7 3.8 16.8 23.8-25.1L56.9 47.3 74.1 48l-21.3 4.8-7.1 9.8 22.7 0.9-28 6.3L25.4 90.4c6.9 4.5 15.1 7.1 23.9 7.1 20 0 36.9-13.5 42.1-31.8l0 0c0-0.2 0.1-0.3 0.1-0.5 0.6-2.3 1.1-4.7 1.4-7.1C96.6 34.1 93.1 3.2 93.1 3.2z" fill="#0074d9" data-fill-palette-color="accent"/>
                    </g>
                    <g class="" display="inline" fill="#0074d9" data-fill-palette-color="accent">
                      <path d="M85.2 81.9c0-0.1 0-0.1 0.1-0.1 8.1-8.6 13-20.2 13-32.9C98.3 22.1 76.7 0.5 50 0.5S1.7 22.1 1.7 48.8c0 20.5 12.8 38 30.8 45 0 0-0.1 0-0.1 0s27.8 13.9 64.3-1.9C96.8 92 79.4 91.2 85.2 81.9zM33.6 53.6c-6.2 0-11.3-5-11.3-11.3 0-4.6 2.7-8.4 6.6-10.2 2 6.6 8.1 11.4 15.3 11.4 0.2 0 0.3 0 0.5 0C44.2 49.1 39.4 53.6 33.6 53.6zM62.7 53.6c-5.8 0-10.6-4.5-11.2-10.2 0.2 0 0.3 0 0.5 0 7.2 0 13.3-4.8 15.3-11.4 3.9 1.8 6.6 5.7 6.6 10.2C73.9 48.5 68.9 53.6 62.7 53.6z" fill="#0074d9" data-fill-palette-color="accent"/>
                    </g>
                    <g class="" display="inline" fill="#0074d9" data-fill-palette-color="accent">
                      <polygon points="75.2,13.5 48,13.5 23.7,86.5 99.5,86.5   " fill="#0074d9" data-fill-palette-color="accent"/>
                      <polygon points="17.2,36.3 0.5,86.5 14,86.5 30.7,36.3   " fill="#0074d9" data-fill-palette-color="accent"/>
                    </g>
                    <g class="" display="inline" fill="#0074d9" data-fill-palette-color="accent">
                      <polygon points="77,11.7 31.6,11.7 0.5,50.4 0.5,74.9 23,80.2 70.2,47.5   " fill="#0074d9" data-fill-palette-color="accent"/>
                      <polygon points="34.5,82.8 55.6,88.3 84.3,69.5 73.9,55.9   " fill="#0074d9" data-fill-palette-color="accent"/>
                      <polygon points="87.2,11.7 79.4,50.1 89.6,65 99.5,58.5   " fill="#0074d9" data-fill-palette-color="accent"/>
                    </g>
                    <g class="" display="inline" fill="#0074d9" data-fill-palette-color="accent">
                      <path d="M83 56.3L83 56.3c0-0.1-0.1-0.3-0.1-0.4-0.2-0.8-0.5-1.6-0.8-2.4C75.3 33.8 50 0.5 50 0.5s-25.3 33.3-32.1 53c-0.3 0.8-0.5 1.6-0.8 2.4 0 0.1-0.1 0.3-0.1 0.4h0c-0.8 2.9-1.2 5.9-1.2 9 0 18.9 15.3 34.2 34.2 34.2s34.2-15.3 34.2-34.2C84.2 62.2 83.8 59.2 83 56.3zM67.4 79.5L67.4 79.5c-3.9 5.4-10.2 9-17.4 9-10.8 0-19.7-8-21.1-18.4 0 0 0 0 0 0l0-0.1c0 0 0 0 0 0.1 0-2.9 2.3-5.2 5.2-5.2 2.5 0 4.7 1.8 5.1 4.3l0 0c1.1 5.1 5.2 9.4 10.7 10.4 4.8 0.9 9.5-0.8 12.6-4.2 0 0 0 0 0 0l0 0c0 0 0 0 0 0 0.6-0.5 1.5-0.8 2.4-0.7 1.8 0.2 3.1 1.7 3 3.5C67.8 78.6 67.6 79.1 67.4 79.5z" fill="#0074d9" data-fill-palette-color="accent"/>
                    </g>
                    <g class="" display="inline" fill="#0074d9" data-fill-palette-color="accent">
                      <path d="M35 24.8C16 26.2 0.5 40.2 0.5 59.2S15.9 93.7 35 93.7c12.5 0 23.4-6.6 29.4-16.5 0 0-7.4 2.2-14.8 3-2 0.2-3.9-0.9-4.2-2.9-0.4-2 0.9-3.9 2.9-4.2 0 0 20.4-4.2 29.7-15 0 0-12.3 5.9-27.2 7.1-2 0.2-3.9-0.9-4.2-2.9-0.4-2 0.9-3.9 2.9-4.2 0 0 26.8-4.1 41.6-23.4 0 0-14.7 10.8-39 12.3-2 0.1-3.9-0.9-4.2-2.9s0.9-3.9 2.9-4.2c0 0 29.5-3.2 49-33.7C99.5 6.3 78.9 21.5 35 24.8z" fill="#0074d9" data-fill-palette-color="accent"/>
                    </g>
                    <g class="" display="inline" fill="#0074d9" data-fill-palette-color="accent">
                      <path d="M99.5 50L73.8 35.9l4-13.7-13.7 4L50 0.5 35.9 26.2l-13.7-4 4 13.7L0.5 50l25.7 14.1-4 13.7 13.7-4L50 99.5l14.1-25.7 13.7 4-4-13.7L99.5 50zM54.8 54.8L50 63.6l-4.8-8.8L36.4 50l8.8-4.8 4.8-8.8 4.8 8.8 8.8 4.8L54.8 54.8z" fill="#0074d9" data-fill-palette-color="accent"/>
                    </g>
                    <g class="" display="inline" fill="#0074d9" data-fill-palette-color="accent">
                      <path d="M72 94.8c-5.6 3-12.1 4.7-18.9 4.7-22.2 0-40.2-18-40.2-40.2 0-6.2 1.4-12 3.9-17.2 0 0 0 10.7 4.8 15.5 0 0-1.4-5.2 3.8-13.9 5.2-8.7 23.9-17 26-24.3 2.1-7.3 1-15.2-2.3-18.8 0 0 9.8 4.9 10.2 15.9 0.5 11-3.5 22.1 3 25.7 5 2.7 10.5 0 11-5 0.4-3.6-1.2-9.1-5.3-13.4 0 0 19.1 11.6 19.1 32.1C87.1 82.6 66 89 66 89 76 75.1 68.1 62 68.1 62c0.2 13.9-11.7 16.8-11.7 16.8 4-2 6.8-6.2 6.8-11 0-6.8-5.5-12.3-12.3-12.3S38.7 61 38.7 67.7c0 2 1.3 5.5 1.3 5.5-5.2-2.9-4.2-10.4-4.2-10.4-0.6 2.2-0.9 4.5-0.9 6.9 0 15.1 12.3 27.4 27.4 27.4 3.4 0 6.6-0.6 9.6-1.7" fill="#0074d9" data-fill-palette-color="accent"/>
                    </g>
                    <g class="" display="inline" fill="#0074d9" data-fill-palette-color="accent">
                      <path d="M22.1 54.9l0-44.1c0-5.2 3.8-9.9 8.9-10.3 4.9-0.4 9.1 2.9 10.2 7.4 1.4-3.5 4.9-6 9-6 5.3 0 9.7 4.3 9.7 9.7 0 0.4-0.1 0.7-0.1 1.1 1.8-2.6 4.8-4.2 8.2-4.2 5.5 0 10 4.5 10 10 0 0.1 0 0.3 0 0.4 2-2.4 5.1-3.8 8.6-3.2 4.3 0.8 7.3 4.9 7.3 9.3l0 29.2c0 24.1-18.8 44.7-42.9 45.2C26.3 99.9 6.3 80.2 6.3 55.8H6.2c0-8 3.2-15.3 8.5-20.6 1.2-1.3 3.4-0.3 3.4 1.4C18.1 41.4 18.7 54.9 22.1 54.9z" fill="#0074d9" data-fill-palette-color="accent"/>
                    </g>
                    <g class="" display="inline" fill="#0074d9" data-fill-palette-color="accent">
                      <path d="M70.6 6H29.4c-3 0-5.7 1.6-7.2 4.1L1.6 45.9c-1.5 2.6-1.5 5.7 0 8.3l20.6 35.7c1.5 2.6 4.2 4.1 7.2 4.1h41.2c3 0 5.7-1.6 7.2-4.1l20.6-35.7c1.5-2.6 1.5-5.7 0-8.3L77.8 10.2C76.3 7.6 73.6 6 70.6 6zM55 71.1C39.2 74.6 25.4 60.8 28.9 45c1.8-8 8.2-14.4 16.2-16.2C60.8 25.4 74.6 39.2 71.1 55 69.3 62.9 62.9 69.3 55 71.1z" fill="#0074d9" data-fill-palette-color="accent"/>
                    </g>
                    <g class="" display="inline" fill="#0074d9" data-fill-palette-color="accent">
                      <path d="M1.3 48.6l18.9-11.3c0.5-0.3 1.2-0.3 1.7 0l19.4 11.3c1.1 0.6 1.1 2.2 0 2.9L21.9 62.8c-0.5 0.3-1.2 0.3-1.7 0L1.3 51.5C0.2 50.8 0.2 49.3 1.3 48.6z" fill="#0074d9" data-fill-palette-color="accent"/>
                      <path d="M58.7 48.6l18.9-11.3c0.5-0.3 1.2-0.3 1.7 0l19.4 11.3c1.1 0.6 1.1 2.2 0 2.9L79.3 62.8c-0.5 0.3-1.2 0.3-1.7 0L58.7 51.5C57.6 50.8 57.6 49.3 58.7 48.6z" fill="#0074d9" data-fill-palette-color="accent"/>
                      <path d="M24.4 91.5l-0.4-22c0-0.6 0.3-1.2 0.8-1.5l19.5-11.1c1.1-0.6 2.5 0.2 2.5 1.4L47 80.8c0 0.6-0.3 1.2-0.9 1.5L26.9 92.9C25.8 93.6 24.5 92.8 24.4 91.5z" fill="#0074d9" data-fill-palette-color="accent"/>
                      <path d="M53.1 41.8l-0.4-22c0-0.6 0.3-1.2 0.8-1.5L73.1 7.2c1.1-0.6 2.5 0.2 2.5 1.4l0.1 22.4c0 0.6-0.3 1.2-0.9 1.5L55.6 43.2C54.5 43.8 53.2 43.1 53.1 41.8z" fill="#0074d9" data-fill-palette-color="accent"/>
                      <path d="M73.1 92.8L53.8 82.1c-0.5-0.3-0.9-0.9-0.9-1.5l0.1-22.4c0-1.3 1.4-2.1 2.5-1.4l19.5 11.1c0.5 0.3 0.9 0.9 0.8 1.5l-0.4 22C75.5 92.6 74.2 93.4 73.1 92.8z" fill="#0074d9" data-fill-palette-color="accent"/>
                      <path d="M44.4 43.1L25.1 32.4c-0.5-0.3-0.9-0.9-0.9-1.5l0.1-22.4c0-1.3 1.4-2.1 2.5-1.4l19.5 11.1c0.5 0.3 0.9 0.9 0.8 1.5l-0.4 22C46.8 42.9 45.5 43.7 44.4 43.1z" fill="#0074d9" data-fill-palette-color="accent"/>
                    </g>
                    <g class="" display="inline" fill="#0074d9" data-fill-palette-color="accent">
                      <path d="M18.6 36.7H35c1.6 0 2.7-1.5 2.2-3L27.1 3.5c-0.5-1.5 0.6-3 2.2-3h32.9c1 0 1.8 0.6 2.1 1.5l19.3 54.8c0.5 1.5-0.6 3-2.1 3H58.6c-1.5 0-2.6 1.4-2.2 2.8l8.4 34c0.6 2.4-2.5 3.9-4 1.9l-44-58.2C15.6 38.9 16.7 36.7 18.6 36.7z" fill="#0074d9" data-fill-palette-color="accent"/>
                    </g>
                  </g>
                  <g fill="#0074d9" data-fill-palette-color="accent">
                    <g fill="#0074d9" data-fill-palette-color="accent">
                      <path d="M 51.367 18.367 L 61.567 -0.033 L 9.667 51.867 C 7.667 53.867 9.467 57.267 12.267 56.667 L 51.867 48.167 C 61.267 48.167 68.767 55.767 68.767 65.067 C 68.767 74.467 61.167 81.967 51.867 81.967 C 47.567 81.967 32.367 82.767 17.467 67.767 C 16.367 66.567 14.367 67.567 14.667 69.167 C 16.367 77.667 22.167 93.767 41.367 97.867 C 65.467 103.067 89.567 86.167 91.467 61.667 C 93.367 38.067 74.667 18.367 51.367 18.367 Z M 30.167 46.567 C 28.267 46.567 26.467 45.867 25.167 44.767 L 36.367 33.567 C 36.367 33.567 36.367 33.567 36.367 33.567 C 37.467 34.967 38.167 36.667 38.167 38.567 C 38.167 43.067 34.567 46.567 30.167 46.567 Z" fill="#0074d9" data-fill-palette-color="accent"/>
                    </g>
                  </g>
                </svg>
              </g>
            </svg>
          </g>
        </svg>
      </g>
    </svg>
    <rect width="395.52" height="145.067" fill="none" stroke="none" visibility="hidden" x="0.24" y="-0.033"/>
  </svg>
</svg>